<svg width="44" height="44" viewBox="0 0 44 44" fill="none" xmlns="http://www.w3.org/2000/svg">
<path fill-rule="evenodd" clip-rule="evenodd" d="M4.125 22C4.125 12.1275 12.1275 4.125 22 4.125C31.8725 4.125 39.875 12.1275 39.875 22C39.875 31.8725 31.8725 39.875 22 39.875C12.1275 39.875 4.125 31.8725 4.125 22ZM15.125 17.5303C15.125 16.203 16.203 15.125 17.5322 15.125H26.4678C27.797 15.125 28.875 16.203 28.875 17.5322V26.4678C28.875 27.797 27.797 28.875 26.4678 28.875H17.534C17.2178 28.8752 16.9047 28.8131 16.6125 28.6923C16.3204 28.5714 16.0549 28.3941 15.8313 28.1705C15.6078 27.9469 15.4305 27.6815 15.3096 27.3893C15.1887 27.0971 15.1266 26.784 15.1268 26.4678V17.534L15.125 17.5303Z" fill="#E48900"/>
</svg>
