<svg width="217" height="44" viewBox="0 0 217 44" fill="none" xmlns="http://www.w3.org/2000/svg">
<path fill-rule="evenodd" clip-rule="evenodd" d="M4.125 22C4.125 12.1275 12.1275 4.125 22 4.125C31.8725 4.125 39.875 12.1275 39.875 22C39.875 31.8725 31.8725 39.875 22 39.875C12.1275 39.875 4.125 31.8725 4.125 22ZM15.125 17.5303C15.125 16.203 16.203 15.125 17.5322 15.125H26.4678C27.797 15.125 28.875 16.203 28.875 17.5322V26.4678C28.875 27.797 27.797 28.875 26.4678 28.875H17.534C17.2178 28.8752 16.9047 28.8131 16.6125 28.6923C16.3204 28.5714 16.0549 28.3941 15.8313 28.1705C15.6078 27.9469 15.4305 27.6815 15.3096 27.3893C15.1887 27.0971 15.1266 26.784 15.1268 26.4678V17.534L15.125 17.5303Z" fill="#E48900"/>
<path d="M66.344 33.608C64.232 33.608 62.4187 33.2453 60.904 32.52C59.3893 31.7733 58.152 30.8027 57.192 29.608C56.232 28.392 55.5173 27.0907 55.048 25.704C54.6 24.296 54.376 22.9307 54.376 21.608V20.904C54.376 19.4533 54.6107 18.024 55.08 16.616C55.5493 15.1867 56.264 13.896 57.224 12.744C58.2053 11.592 59.432 10.6747 60.904 9.992C62.3973 9.288 64.1573 8.936 66.184 8.936C68.296 8.936 70.1627 9.33067 71.784 10.12C73.4053 10.9093 74.696 12.008 75.656 13.416C76.6373 14.8027 77.2133 16.4347 77.384 18.312H72.104C71.9547 17.3733 71.6133 16.5733 71.08 15.912C70.5467 15.2507 69.8533 14.7387 69 14.376C68.168 14.0133 67.2293 13.832 66.184 13.832C65.1387 13.832 64.2107 14.0133 63.4 14.376C62.5893 14.7387 61.9067 15.2507 61.352 15.912C60.8187 16.5733 60.4027 17.3627 60.104 18.28C59.8267 19.176 59.688 20.1787 59.688 21.288C59.688 22.376 59.8267 23.3787 60.104 24.296C60.4027 25.192 60.8293 25.9813 61.384 26.664C61.96 27.3253 62.664 27.8373 63.496 28.2C64.328 28.5413 65.2773 28.712 66.344 28.712C67.9653 28.712 69.3307 28.3173 70.44 27.528C71.5707 26.7387 72.2533 25.6507 72.488 24.264H77.736C77.544 25.9707 76.968 27.5387 76.008 28.968C75.0693 30.376 73.7787 31.5067 72.136 32.36C70.5147 33.192 68.584 33.608 66.344 33.608ZM81.5697 33V15.464H85.6337V22.984H85.5377C85.5377 20.5093 86.0604 18.6 87.1057 17.256C88.1724 15.912 89.7084 15.24 91.7137 15.24H92.3857V19.656H91.1058C89.6977 19.656 88.6097 20.04 87.8418 20.808C87.0737 21.5547 86.6897 22.6427 86.6897 24.072V33H81.5697ZM106.177 33V27.816H105.313V22.184C105.313 21.288 105.099 20.616 104.673 20.168C104.246 19.72 103.563 19.496 102.625 19.496C102.155 19.496 101.537 19.5067 100.769 19.528C100.001 19.5493 99.2114 19.5813 98.4007 19.624C97.5901 19.6667 96.8541 19.7093 96.1927 19.752V15.432C96.6834 15.3893 97.2594 15.3467 97.9207 15.304C98.5821 15.2613 99.2647 15.2293 99.9687 15.208C100.673 15.1867 101.334 15.176 101.953 15.176C103.745 15.176 105.249 15.432 106.465 15.944C107.702 16.456 108.641 17.2347 109.281 18.28C109.921 19.304 110.241 20.6267 110.241 22.248V33H106.177ZM100.577 33.448C99.3181 33.448 98.2087 33.224 97.2487 32.776C96.3101 32.328 95.5741 31.688 95.0407 30.856C94.5074 30.0027 94.2407 28.9893 94.2407 27.816C94.2407 26.536 94.5714 25.4907 95.2327 24.68C95.8941 23.848 96.8221 23.24 98.0167 22.856C99.2114 22.4507 100.587 22.248 102.145 22.248H105.889V25.096H102.113C101.217 25.096 100.523 25.32 100.033 25.768C99.5634 26.1947 99.3287 26.7813 99.3287 27.528C99.3287 28.232 99.5634 28.808 100.033 29.256C100.523 29.6827 101.217 29.896 102.113 29.896C102.689 29.896 103.201 29.8 103.649 29.608C104.118 29.3947 104.502 29.0427 104.801 28.552C105.099 28.0613 105.27 27.3787 105.313 26.504L106.529 27.784C106.422 29 106.123 30.024 105.633 30.856C105.163 31.688 104.502 32.328 103.649 32.776C102.817 33.224 101.793 33.448 100.577 33.448ZM115.609 33V15.304C115.609 13.2773 116.185 11.7733 117.337 10.792C118.489 9.81067 120.185 9.32 122.425 9.32H124.665V13.16H122.201C121.625 13.16 121.177 13.32 120.857 13.64C120.537 13.96 120.377 14.408 120.377 14.984V33H115.609ZM113.529 19.56V15.816H124.921V19.56H113.529ZM136.395 33.224C134.625 33.224 133.195 33.0107 132.107 32.584C131.019 32.136 130.219 31.4 129.707 30.376C129.217 29.3307 128.971 27.9227 128.971 26.152V10.728H133.739V26.344C133.739 27.176 133.953 27.816 134.379 28.264C134.827 28.6907 135.457 28.904 136.267 28.904H138.859V33.224H136.395ZM126.315 19.208V15.464H138.859V19.208H126.315ZM143.774 33V15.464H148.894V33H143.774ZM141.438 19.24V15.464H148.894V19.24H141.438ZM145.758 13.736C144.798 13.736 144.084 13.4907 143.614 13C143.166 12.488 142.942 11.848 142.942 11.08C142.942 10.2907 143.166 9.65066 143.614 9.16C144.084 8.648 144.798 8.392 145.758 8.392C146.718 8.392 147.422 8.648 147.87 9.16C148.34 9.65066 148.574 10.2907 148.574 11.08C148.574 11.848 148.34 12.488 147.87 13C147.422 13.4907 146.718 13.736 145.758 13.736ZM166.974 39.4V27.816L168.35 25.96C168.307 27.5387 167.987 28.904 167.39 30.056C166.814 31.1867 166.003 32.0613 164.958 32.68C163.912 33.2773 162.686 33.576 161.278 33.576C160.062 33.576 158.952 33.352 157.95 32.904C156.947 32.4347 156.083 31.8053 155.358 31.016C154.654 30.2053 154.11 29.256 153.726 28.168C153.363 27.08 153.182 25.9067 153.182 24.648V23.912C153.182 22.6533 153.374 21.48 153.758 20.392C154.163 19.304 154.728 18.3547 155.454 17.544C156.2 16.7333 157.075 16.104 158.078 15.656C159.102 15.1867 160.232 14.952 161.47 14.952C162.92 14.952 164.168 15.272 165.214 15.912C166.28 16.5307 167.112 17.4373 167.71 18.632C168.307 19.8053 168.627 21.2453 168.67 22.952H168.062V15.464H172.126V39.4H166.974ZM162.782 29.256C163.571 29.256 164.286 29.0853 164.926 28.744C165.587 28.3813 166.11 27.8587 166.494 27.176C166.899 26.4933 167.102 25.672 167.102 24.712V23.528C167.102 22.5893 166.899 21.8 166.494 21.16C166.088 20.52 165.555 20.0293 164.894 19.688C164.232 19.3467 163.528 19.176 162.782 19.176C161.907 19.176 161.128 19.4 160.446 19.848C159.784 20.2747 159.262 20.872 158.878 21.64C158.494 22.3867 158.302 23.272 158.302 24.296C158.302 25.2987 158.494 26.1733 158.878 26.92C159.262 27.6667 159.784 28.2427 160.446 28.648C161.128 29.0533 161.907 29.256 162.782 29.256ZM183.33 33.544C181.303 33.544 179.746 32.8933 178.658 31.592C177.57 30.2693 177.026 28.2853 177.026 25.64V15.464H182.146V25.896C182.146 26.8347 182.412 27.5813 182.946 28.136C183.479 28.6907 184.194 28.968 185.09 28.968C186.007 28.968 186.754 28.68 187.33 28.104C187.906 27.528 188.194 26.7493 188.194 25.768V15.464H193.314V33H189.25V25.608H189.602C189.602 27.3787 189.367 28.8613 188.898 30.056C188.45 31.2293 187.778 32.104 186.882 32.68C185.986 33.256 184.876 33.544 183.554 33.544H183.33ZM206.707 33.608C205.213 33.608 203.891 33.352 202.739 32.84C201.608 32.328 200.659 31.6453 199.891 30.792C199.144 29.9173 198.568 28.9467 198.163 27.88C197.779 26.792 197.587 25.6827 197.587 24.552V23.912C197.587 22.7387 197.779 21.6187 198.163 20.552C198.568 19.464 199.144 18.4933 199.891 17.64C200.637 16.7867 201.565 16.1147 202.675 15.624C203.805 15.112 205.085 14.856 206.515 14.856C208.392 14.856 209.971 15.2827 211.251 16.136C212.552 16.968 213.544 18.0667 214.227 19.432C214.909 20.776 215.251 22.248 215.251 23.848V25.576H199.731V22.664H212.147L210.483 24.008C210.483 22.9627 210.333 22.0667 210.035 21.32C209.736 20.5733 209.288 20.008 208.691 19.624C208.115 19.2187 207.389 19.016 206.515 19.016C205.619 19.016 204.861 19.2187 204.243 19.624C203.624 20.0293 203.155 20.6267 202.835 21.416C202.515 22.184 202.355 23.1333 202.355 24.264C202.355 25.3093 202.504 26.2267 202.803 27.016C203.101 27.784 203.571 28.3813 204.211 28.808C204.851 29.2347 205.683 29.448 206.707 29.448C207.645 29.448 208.413 29.2667 209.011 28.904C209.608 28.5413 210.013 28.0933 210.227 27.56H214.931C214.675 28.7333 214.173 29.7787 213.427 30.696C212.68 31.6133 211.741 32.328 210.611 32.84C209.48 33.352 208.179 33.608 206.707 33.608Z" fill="#080808"/>
</svg>
